<svg xmlns="http://www.w3.org/2000/svg" fill="white" viewBox="0 0 24 24">
<path d="M12 .5C5.648.5.5 5.648.5 12c0 5.096 3.292 9.41 7.865 10.938.575.104.785-.25.785-.556 0-.274-.01-1-.016-1.962-3.2.696-3.877-1.542-3.877-1.542-.523-1.33-1.277-1.684-1.277-1.684-1.044-.714.08-.699.08-.699 1.154.081 1.76 1.185 1.76 1.185 1.026 1.758 2.692 1.25 3.35.956.104-.743.402-1.25.732-1.538-2.554-.29-5.238-1.277-5.238-5.684 0-1.255.45-2.282 1.184-3.087-.118-.29-.513-1.458.112-3.04 0 0 .966-.31 3.166 1.18a10.98 10.98 0 012.882-.387c.978.004 1.964.132 2.882.387 2.198-1.49 3.163-1.18 3.163-1.18.627 1.582.232 2.75.114 3.04.737.805 1.182 1.832 1.182 3.087 0 4.418-2.688 5.39-5.25 5.675.414.356.783 1.058.783 2.134 0 1.54-.014 2.782-.014 3.16 0 .31.207.665.792.552C20.21 21.406 23.5 17.093 23.5 12 23.5 5.648 18.352.5 12 .5z"/>
</svg>