<svg width="76" height="19" viewBox="0 0 76 19" fill="none" xmlns="http://www.w3.org/2000/svg">
<path d="M74.6244 0C75.3987 5.12004e-06 76 0.614051 76 1.3677V17.6323C76 18.3875 75.1734 19 74.3976 19H58.2058C57.4315 19 57 18.3875 57 17.6323V1.3677C57 0.612461 57.6585 0 58.4328 0H74.6244ZM54.2852 16.2868H51.7514V15.2096H51.7244C51.1612 15.8632 50.1822 16.3995 48.5226 16.3996C46.2601 16.3996 44.3133 14.697 44.3132 11.7729C44.3132 8.98675 46.2331 7.12562 48.6083 7.12562C50.0791 7.12563 50.9915 7.64922 51.5436 8.3156H51.5706V2.71479H54.2852V16.2868ZM39.1122 7.12562C41.7825 7.12562 43.4294 8.87876 43.4294 11.9632C43.4294 12.2692 43.3809 12.5738 43.3803 12.5772H36.9433L36.9592 12.8564C37.1369 13.637 37.7271 14.5907 39.0773 14.5907C40.2578 14.5907 41.0654 13.9561 41.4319 13.4595L43.1217 14.8287C42.4807 15.6585 41.1621 16.3994 39.0329 16.3994C36.1912 16.3994 34.381 14.5177 34.3809 11.5619C34.3809 8.93598 36.0199 7.12563 39.1122 7.12562ZM59.7148 16.2869H62.4294V7.23981H59.7148V16.2869ZM69.79 7.12562C68.3667 7.12562 67.2148 7.83956 66.8245 8.54244H66.7959V7.23827H64.2367V16.2869H66.9514V11.941C66.9514 10.4242 67.6019 9.50078 68.9664 9.50077C70.0898 9.50077 70.5706 10.5575 70.5706 11.7602V16.2869H73.2852V11.2651C73.2852 8.57739 72.5237 7.12564 69.79 7.12562ZM2.71479 2.71479V13.5721H8.14268V16.2868H0V2.71479H2.71479ZM12.6677 16.2868H9.95306V7.23981H12.6677V16.2868ZM20.0282 7.12562C22.7619 7.12565 23.5235 8.85981 23.5235 11.2651V16.2868H20.8088V11.7602C20.8088 10.429 20.328 9.50078 19.2047 9.50077C17.8402 9.50077 17.1896 10.5813 17.1896 11.941V16.2868H14.475V7.23827H17.0342V8.54244H17.0627C17.453 7.83956 18.605 7.12562 20.0282 7.12562ZM28.0471 10.8573L31.214 7.23827H34.3809L30.7617 11.3397L34.5982 16.2868H31.3948L28.0471 11.7633V16.2868H25.3339V2.71479H28.0471V10.8573ZM49.2905 9.16129C47.7388 9.16129 46.8661 10.2672 46.8661 11.7396C46.8661 13.212 47.7388 14.3639 49.2905 14.3639C50.8438 14.3639 51.7529 13.2405 51.7529 11.7396C51.7529 10.1958 50.8439 9.1613 49.2905 9.16129ZM39.0298 8.93429C37.716 8.93429 37.0147 9.96087 36.9417 10.8573H40.8163C40.8337 9.90218 40.134 8.93432 39.0298 8.93429ZM61.0713 2.37686C60.1336 2.37686 59.3752 3.13519 59.3752 4.07289C59.3752 5.01059 60.1336 5.76907 61.0713 5.76907C62.009 5.76906 62.7674 5.01058 62.7674 4.07289C62.7674 3.1352 62.009 2.37687 61.0713 2.37686ZM11.3112 2.44504C12.2108 2.44504 12.939 3.17485 12.939 4.07289C12.939 4.97091 12.2108 5.70074 11.3112 5.70074C10.4115 5.70074 9.68177 4.97091 9.68175 4.07289C9.68175 3.17485 10.4131 2.44504 11.3112 2.44504Z" fill="#F5F7FA"/>
</svg>
