<svg width="104" height="16" viewBox="0 0 104 16" fill="none" xmlns="http://www.w3.org/2000/svg">
<path d="M15.5923 8.06264C15.5923 12.4213 12.1019 15.9549 7.79603 15.9549C3.4902 15.9549 0 12.4224 0 8.06264C0 3.70287 3.49046 0.170611 7.79603 0.170611C12.1016 0.170611 15.5923 3.70394 15.5923 8.06264ZM24.145 8.06264C24.145 12.1658 22.3996 15.4918 20.2468 15.4918C18.094 15.4918 16.3487 12.1648 16.3487 8.06264C16.3487 3.96052 18.094 0.63347 20.2468 0.63347C22.3996 0.63347 24.145 3.96052 24.145 8.06264ZM27.6431 8.06264C27.6431 11.7389 27.0292 14.7189 26.2721 14.7189C25.5149 14.7189 24.901 11.7378 24.901 8.06264C24.901 4.38745 25.5149 1.40641 26.2723 1.40641C27.0297 1.40641 27.6431 4.38665 27.6431 8.06264ZM49.1595 0.854918L49.1812 0.850127V0.681113H44.7476L40.6307 10.4094L36.5139 0.681113H31.7361V0.850127L31.7575 0.854918C32.5668 1.03857 32.9777 1.31245 32.9777 2.30019V13.8637C32.9777 14.8514 32.5652 15.1253 31.7559 15.3089L31.7345 15.3137V15.4833H34.9761V15.3143L34.9547 15.3095C34.1454 15.1258 33.7345 14.8519 33.7345 13.8642V2.97092L39.023 15.4833H39.323L44.7656 2.62198V14.1498C44.6962 14.9299 44.289 15.1708 43.5563 15.3372L43.5346 15.3422V15.5099H49.1812V15.3422L49.1595 15.3372C48.426 15.1708 48.009 14.9299 47.9397 14.1498L47.936 2.30019H47.9397C47.9397 1.31245 48.3505 1.03857 49.1595 0.854918ZM51.7388 8.51511C51.8312 6.43744 52.5732 4.93787 53.8185 4.91205C54.2026 4.91844 54.5248 5.04514 54.7753 5.28894C55.3074 5.80823 55.5575 6.89338 55.5189 8.51511H51.7388ZM51.6829 9.10067H58.3012V9.07273C58.2824 7.48399 57.8247 6.2482 56.9421 5.39967C56.1791 4.66638 55.0495 4.26288 53.863 4.26288H53.8365C53.2208 4.26288 52.4655 4.413 51.9281 4.68502C51.3163 4.96981 50.7768 5.39567 50.3278 5.95462C49.6051 6.85505 49.1672 8.07195 49.0608 9.4395C49.0573 9.48049 49.0544 9.52148 49.0515 9.56247C49.0486 9.60346 49.0468 9.64019 49.0449 9.67931C49.0355 9.8716 49.0323 10.0641 49.0354 10.2566C49.1071 13.354 50.7712 15.8293 53.7269 15.8293C56.3213 15.8293 57.8321 13.9225 58.2088 11.3631L58.0185 11.2957C57.3566 12.6713 56.168 13.5049 54.8152 13.4032C52.9685 13.2643 51.5538 11.3817 51.6822 9.10121M65.784 13.2981C65.567 13.8158 65.114 14.1006 64.507 14.1006C63.9 14.1006 63.3451 13.6816 62.9509 12.9204C62.5273 12.1033 62.3044 10.9481 62.3044 9.57977C62.3044 6.73182 63.1855 4.8897 64.5491 4.8897C65.1201 4.8897 65.5696 5.17449 65.784 5.67142V13.2981ZM70.1743 15.3284C69.3651 15.1359 68.9542 14.8493 68.9542 13.8112V0L64.0374 1.45645V1.63478L64.0675 1.63238C64.7458 1.57729 65.2059 1.67151 65.473 1.91957C65.6821 2.11387 65.784 2.41198 65.784 2.83145V4.72494C65.2993 4.4138 64.7227 4.26235 64.0231 4.26235C62.6041 4.26235 61.3072 4.86308 60.3719 5.95409C59.3969 7.09114 58.8815 8.645 58.8815 10.4472C58.8811 13.6659 60.4572 15.8293 62.8027 15.8293C64.1748 15.8293 65.2787 15.0734 65.784 13.7985V15.5099H70.1958V15.3326L70.1743 15.3284ZM74.3912 1.87832C74.3912 0.873284 73.6375 0.115249 72.6376 0.115249C71.6425 0.115249 70.864 0.889786 70.864 1.87832C70.864 2.86685 71.6433 3.64139 72.6376 3.64139C73.6375 3.64139 74.3912 2.88335 74.3912 1.87832ZM75.5518 15.3284C74.7425 15.1359 74.3316 14.8493 74.3316 13.8112H74.3282V4.29509L69.9162 5.56868V5.74169L69.9427 5.74408C70.8973 5.82952 71.1586 6.1601 71.1586 7.28171V15.5099H75.5743V15.3326L75.5518 15.3284ZM86.8571 15.3284C86.0478 15.1359 85.6369 14.8493 85.6369 13.8112V4.29509L81.4362 5.52663V5.70017L81.4611 5.70283C82.2415 5.78534 82.4671 6.13481 82.4671 7.26148V13.2768C82.2068 13.7945 81.7187 14.1019 81.1273 14.1227C80.1681 14.1227 79.64 13.4714 79.64 12.2888V4.29535L75.228 5.56895V5.74169L75.2545 5.74408C76.2091 5.82925 76.4707 6.15983 76.4707 7.28171V12.3726C76.4684 12.728 76.4992 13.0828 76.5625 13.4325L76.6419 13.7798C77.0155 15.1256 77.9942 15.8293 79.5275 15.8293C80.8263 15.8293 81.9646 15.021 82.466 13.7561V15.5128H86.878V15.3356L86.8571 15.3284ZM103.996 15.5099V15.3324L103.975 15.3273C103.097 15.1237 102.755 14.7399 102.755 13.9584V7.48533C102.755 5.46701 101.627 4.26235 99.7388 4.26235C98.3622 4.26235 97.2014 5.06217 96.7545 6.30808C96.3995 4.98791 95.3779 4.26235 93.8674 4.26235C92.5406 4.26235 91.5007 4.96635 91.0546 6.15557V4.29588L86.6426 5.51731V5.69138L86.6691 5.69378C87.6124 5.77788 87.885 6.11804 87.885 7.21091V15.5099H92.0016V15.3326L91.9799 15.3273C91.2794 15.1618 91.0533 14.8599 91.0533 14.0854V6.66581C91.2386 6.23063 91.6122 5.71507 92.3505 5.71507C93.2675 5.71507 93.7324 6.35386 93.7324 7.61229V15.5099H97.85V15.3326L97.8283 15.3273C97.1278 15.1618 96.9017 14.8599 96.9017 14.0854V7.48453C96.9035 7.23772 96.884 6.99121 96.8435 6.74779C97.0399 6.27481 97.4349 5.71507 98.2034 5.71507C99.1334 5.71507 99.5853 6.3355 99.5853 7.61229V15.5099H103.996Z" fill="#F5F7FA"/>
</svg>
