<svg width="24" height="24" viewBox="0 0 24 24" fill="none" xmlns="http://www.w3.org/2000/svg">
<path d="M11.025 21.95C9.75833 21.8167 8.57917 21.4708 7.4875 20.9125C6.39583 20.3542 5.44167 19.6292 4.625 18.7375C3.80833 17.8458 3.16667 16.825 2.7 15.675C2.23333 14.525 2 13.3 2 12C2 9.38332 2.87083 7.13332 4.6125 5.24999C6.35417 3.36665 8.49167 2.29999 11.025 2.04999V4.07499C9.04167 4.32499 7.375 5.19582 6.025 6.68749C4.675 8.17915 4 9.94999 4 12C4 14.05 4.675 15.8208 6.025 17.3125C7.375 18.8042 9.04167 19.675 11.025 19.925V21.95ZM11.025 17V10.825L8.425 13.425L7.025 12L12.025 6.99999L17.025 12L15.6 13.4L13.025 10.825V17H11.025ZM13.025 21.95V19.925C13.7583 19.8417 14.4542 19.6583 15.1125 19.375C15.7708 19.0917 16.375 18.7333 16.925 18.3L18.35 19.75C17.6 20.35 16.775 20.8417 15.875 21.225C14.975 21.6083 14.025 21.85 13.025 21.95ZM16.9 5.69999C16.35 5.26665 15.75 4.90832 15.1 4.62499C14.45 4.34165 13.7583 4.15832 13.025 4.07499V2.04999C14.025 2.14999 14.975 2.39165 15.875 2.77499C16.775 3.15832 17.6 3.64999 18.35 4.24999L16.9 5.69999ZM19.75 18.325L18.325 16.9C18.7583 16.35 19.1167 15.7458 19.4 15.0875C19.6833 14.4292 19.8667 13.7333 19.95 13H21.975C21.875 14 21.6292 14.95 21.2375 15.85C20.8458 16.75 20.35 17.575 19.75 18.325ZM19.95 11C19.8667 10.2667 19.6833 9.57082 19.4 8.91249C19.1167 8.25415 18.7583 7.64999 18.325 7.09999L19.75 5.67499C20.35 6.42499 20.8458 7.24999 21.2375 8.14999C21.6292 9.04999 21.875 9.99999 21.975 11H19.95Z" fill="#B9BEC6"/>
</svg>
